<?xml version="1.0" encoding="UTF-8" standalone="no"?>
<!-- Created with Inkscape (http://www.inkscape.org/) -->

<svg
   xmlns:dc="http://purl.org/dc/elements/1.1/"
   xmlns:cc="http://creativecommons.org/ns#"
   xmlns:rdf="http://www.w3.org/1999/02/22-rdf-syntax-ns#"
   xmlns:svg="http://www.w3.org/2000/svg"
   xmlns="http://www.w3.org/2000/svg"
   xmlns:sodipodi="http://sodipodi.sourceforge.net/DTD/sodipodi-0.dtd"
   xmlns:inkscape="http://www.inkscape.org/namespaces/inkscape"
   width="119.06226mm"
   height="25.00074mm"
   viewBox="0 0 119.06226 25.00074"
   version="1.1"
   id="svg100134"
   inkscape:version="0.92.4 (5da689c313, 2019-01-14)"
   sodipodi:docname="Folksam logo.svg">
  <defs
     id="defs100128" />
  <sodipodi:namedview
     id="base"
     pagecolor="#ffffff"
     bordercolor="#666666"
     borderopacity="1.0"
     inkscape:pageopacity="0.0"
     inkscape:pageshadow="2"
     inkscape:zoom="1.979899"
     inkscape:cx="224.9444"
     inkscape:cy="-4.6320327"
     inkscape:document-units="mm"
     inkscape:current-layer="layer1"
     showgrid="false"
     inkscape:window-width="1366"
     inkscape:window-height="705"
     inkscape:window-x="-8"
     inkscape:window-y="-8"
     inkscape:window-maximized="1" />
  <metadata
     id="metadata100131">
    <rdf:RDF>
      <cc:Work
         rdf:about="">
        <dc:format>image/svg+xml</dc:format>
        <dc:type
           rdf:resource="http://purl.org/dc/dcmitype/StillImage" />
        <dc:title></dc:title>
      </cc:Work>
    </rdf:RDF>
  </metadata>
  <g
     inkscape:label="Layer 1"
     inkscape:groupmode="layer"
     id="layer1"
     transform="translate(-102.38779,-102.67205)">
    <path
       inkscape:connector-curvature="0"
       id="path90397"
       d="m 171.58605,116.73415 c -1.39651,-0.72668 -4.65504,-1.89604 -3.4402,-4.22356 0.60145,-1.15807 2.22536,-1.26024 3.31529,-1.0218 1.10131,0.2274 2.13448,0.86287 2.88382,1.68034 0.37487,0.40866 0.70361,0.8969 0.9764,1.3624 0.40866,0.68137 0.74975,1.51005 0.74975,1.51005 h 0.32956 v -5.75634 h -0.30649 c -0.21586,0.62451 -0.48857,1.19218 -1.32837,1.16944 -0.26118,0 -0.74893,-0.0659 -1.48731,-0.39712 -0.52235,-0.23811 -1.66905,-0.6929 -2.91792,-0.78353 -4.00786,-0.34027 -5.79037,2.84971 -5.5633,5.12046 0.13676,1.40788 0.70361,2.35025 1.88475,3.29255 1.85056,1.47601 3.29255,1.86201 5.55193,3.06548 2.83834,1.51004 1.82791,3.79216 0.44244,4.32572 -1.18082,0.4655 -2.81568,0.34027 -4.54142,-0.80577 -0.44326,-0.29496 -0.98786,-0.80578 -1.46465,-1.48739 -0.36334,-0.52235 -0.65829,-1.1467 -0.86295,-1.8279 h -0.39712 v 5.67683 h 0.38558 c 0.18209,-0.51082 0.34027,-1.07865 0.5446,-1.27161 0.18208,-0.18125 0.6583,-0.63605 1.62358,-0.14747 0.6929,0.3518 1.27161,0.65829 1.72574,0.84013 0.94238,0.37487 1.45328,0.42019 1.81662,0.45397 3.02008,0.34027 5.9834,-1.63487 5.9834,-4.95016 0,-1.317 -0.62451,-2.44105 -1.62357,-3.38343 -0.95375,-0.90826 -2.8839,-1.71437 -4.28033,-2.44105 m 16.91689,7.66376 c -1.4873,0.82876 -2.67941,1.08993 -3.49688,0.95366 -1.58955,-0.27271 -2.11182,-1.97547 -1.74848,-3.19031 0.54542,-1.80524 2.25938,-3.02008 5.00701,-4.40522 l 0.30649,-0.15902 z m 5.06377,1.74848 c -0.6583,-0.0824 -0.77199,-0.89698 -0.74975,-2.13448 l 0.0906,-7.9817 c 0.18126,-3.33794 -0.49928,-5.23398 -4.51876,-5.69949 -3.40617,-0.38641 -6.17637,1.01043 -7.18688,1.91878 -1.23758,1.1126 -1.39651,2.12311 -1.36248,2.66812 0.0659,1.16936 1.02188,1.86193 2.14585,1.85064 1.2716,0 2.14584,-0.66983 2.15721,-1.58955 0,-0.66983 -0.26117,-0.95366 -0.55613,-1.3624 -0.23811,-0.32956 -0.53389,-0.63605 -0.42019,-1.11267 0.15901,-0.61299 1.3624,-1.32838 3.17902,-1.35112 1.56681,-0.008 2.37291,0.95375 2.29341,2.50919 l -0.0577,2.82705 c 0,0 -1.52141,0.64676 -5.01829,2.23672 -2.71335,1.2375 -3.92819,2.72488 -4.1326,4.34838 -0.24964,2.15722 1.04454,3.80345 2.90656,4.16679 1.40788,0.27271 2.75891,-0.0906 4.30306,-1.01043 0.49928,-0.29496 1.90741,-1.22621 1.90741,-1.22621 v 0.0247 c 0.19279,1.38514 1.32837,2.05505 2.40694,2.22535 0.95375,0.15901 2.31615,0.0329 3.65589,-1.35111 l -0.31802,-0.31803 c -0.26118,0.23811 -0.49929,0.38641 -0.72668,0.36334 m 26.18147,-1.4873 v -9.69607 c 0,-2.53184 -1.43053,-4.41651 -3.96246,-4.41651 -1.88467,0 -3.71266,1.06719 -4.98427,2.94058 l -0.22657,0.39712 -0.1137,-0.48775 c -0.40865,-1.79388 -1.93015,-2.84979 -3.97383,-2.84979 -1.703,0 -3.11088,0.80578 -4.54142,2.62272 l -0.49928,0.64676 v -3.32657 l -6.26724,-0.008 v 0.68136 c 1.72574,0.30649 1.99828,1.14671 1.99828,2.72489 l 0.0659,10.18422 c 0,1.47593 -0.21586,2.37291 -1.83928,2.61135 v 0.72668 h 7.6523 v -0.73821 c -1.29459,-0.2274 -1.61253,-0.99915 -1.61253,-2.46379 v -9.15106 l 0.0824,-0.14748 c 0.99914,-1.54407 1.90741,-2.44096 2.96332,-2.44096 0.64758,0 1.8733,0.31802 1.8733,2.28203 v 9.40086 c 0,1.53271 -0.15902,2.27067 -1.62358,2.53185 v 0.72668 h 7.48175 v -0.72668 c -1.4873,-0.23811 -1.64623,-0.99914 -1.64623,-2.41831 v -9.18508 l 0.14747,-0.2274 c 1.22622,-1.69163 1.99821,-2.41831 3.07686,-2.41831 1.12396,0 1.74848,0.72668 1.74848,2.10045 v 9.49165 c 0,1.1921 -0.10216,2.39558 -1.64632,2.65675 v 0.72668 h 7.55022 v -0.73821 c -1.46465,-0.24964 -1.69171,-0.84013 -1.70308,-2.00958 m -59.32285,-1.36248 -4.29169,-6.89159 1.63494,-1.86202 c 2.58862,-2.83841 3.20176,-3.29255 5.25673,-3.36068 v -0.70361 h -6.83491 v 0.66983 c 0.86296,0.0329 1.89613,0.30649 1.89613,1.22621 0,0.6929 -0.63605,1.12404 -1.79388,2.47507 l -3.96246,4.47337 -0.008,-16.6558 h -6.5056 v 0.72668 c 1.88467,0.10217 2.29341,0.71515 2.29341,2.61135 v 18.01828 c 0,1.57818 -0.40865,2.55458 -2.29341,2.65675 v 0.72668 h 8.62879 v -0.72668 c -1.81637,-0.17055 -2.12286,-0.86312 -2.12286,-2.49807 v -3.38334 l 1.1467,-1.30572 3.14491,5.23407 c 0.23811,0.37488 0.44243,0.8515 0.44243,1.10131 0,0.52235 -0.42019,0.84013 -0.9764,0.84013 v 0.73822 h 7.76583 v -0.73822 c -1.2716,-0.13594 -1.81653,-0.91964 -3.41737,-3.37197 m -17.87072,1.33974 v -21.96937 h -6.50559 v 0.71515 c 1.93015,0.11369 2.30478,0.69289 2.30478,2.49773 v 18.50652 c 0,1.4873 -0.61298,2.17987 -2.30478,2.28204 v 0.73821 h 8.41301 v -0.73821 c -1.33967,-0.0824 -1.90742,-0.70361 -1.90742,-2.03223 m -28.05485,-20.89081 c 4.09865,0 5.9039,1.55553 6.40351,5.37035 h 0.32956 v -6.44891 h -18.84712 v 0.72667 c 2.7136,-0.0329 3.49696,0.71515 3.49696,3.49688 v 16.30391 c 0,2.46371 -0.51082,3.56501 -3.49696,3.47414 v 0.81731 h 11.43317 v -0.81731 c -1.60091,0.008 -2.21398,-0.17055 -2.74762,-0.78353 -0.4655,-0.52235 -0.65829,-1.29435 -0.65829,-2.67949 v -7.81131 h 0.59073 c 3.34932,0 5.17722,1.82799 5.40429,5.44977 h 0.6583 V 109.4952 h -0.64759 c -0.14748,3.24715 -2.00957,5.1773 -5.01829,5.1773 h -0.9764 v -10.92227 z m 12.9545,23.12745 c -2.19124,0.008 -3.14491,-2.59998 -3.12225,-8.69693 0.0247,-4.95015 1.27161,-6.73266 3.12225,-6.73266 2.59998,-0.008 3.17902,2.88373 3.15636,8.66281 -0.0247,4.91613 -1.26024,6.76678 -3.15636,6.76678 m -0.0659,-16.23577 c -3.66718,0 -7.52748,2.54321 -7.51611,8.39035 0,6.34674 4.47337,8.64015 7.68649,8.64015 3.23579,0 7.5274,-2.29341 7.51611,-8.54928 -0.008,-5.9493 -3.73531,-8.49251 -7.68641,-8.48122"
       style="fill:#009cde;fill-opacity:1;fill-rule:nonzero;stroke:none;stroke-width:2.90653539" />
  </g>
</svg>
