<svg id="Layer_1" data-name="Layer 1" xmlns="http://www.w3.org/2000/svg" viewBox="0 0 1073.3 462.4"><defs><style>.cls-1{fill:#fff;}</style></defs><path class="cls-1" d="M147.2,27.8C150.3,17,157.3,8.1,164.7,0c3.6,19.3,3.9,39.9-3.5,58.4a115.7,115.7,0,0,1-6.7,13.7c12.8-6.1,27.1-9.5,41.3-7.9a83.86,83.86,0,0,1,18.5,4.1C203.8,77.6,191.2,85.5,177,87c-9.8,1.2-19.5-1.7-29.2-1.8-6.2,1.5-12.5,4.5-15.9,10.1-2.4,4.2-4.4,8.6-6.7,12.9,9.9-6.1,21-10.8,32.7-11.3,9.3-.6,18.6,1.5,27.3,4.8-8,5.5-15.9,11.4-24.9,15.1-12.6,4.9-26.3,1.4-39.3,1.2-6.7,4.7-10,12.9-16.8,17.7-1.1,3.6-.5,7.5-1.2,11.2,9.1-7.1,18-15.7,29.7-18.1,11.1-2.1,22.4-.4,33.5.7-5,5.4-10.1,10.7-15.2,15.9a49.47,49.47,0,0,1-27.6,13.3c-9.1,1.8-18.4.4-27.5,1.5-4.6,8-8.2,16.7-12,25.1,11.6-8.2,21.6-19.8,36-23.1,9.6-2.7,19.5,0,29.2,0-2.7,4.3-6.2,8-9.4,11.9-5.6,6.4-11.9,12.7-19.9,16-11.3,5.1-23.9,5-35.9,6.2-2.1,0-2.6,2.4-3.1,4-6.3,24.6-6.9,50.3-5.4,75.6,6.4-8.2,10.2-18.1,17.1-25.9a48.62,48.62,0,0,1,18.7-13.3c7.2-2.9,15-3.5,22.5-5.2C127.2,244.3,121,258,109.4,267c-8.2,6.7-18.5,10-28.2,13.9-1,.6-2.5.8-3,2a23.93,23.93,0,0,0,1.1,6.5c1.6,6.4,2.9,12.9,4.4,19.3,5.8-9.9,11.1-20.2,18.3-29.2a38.6,38.6,0,0,1,16.9-12.1c6.4-2.2,12.8-4.2,19.3-6.2-5.1,11.5-9.5,23.9-18.2,33.3a54.76,54.76,0,0,1-21.2,13.9c-4,1.7-8.3,2.8-12,5.1,1.1,3.9,3.2,7.4,5,10.9a237.58,237.58,0,0,0,29.4,44.2c1.6-11.3.4-23.5,6.1-33.8,5.2-9.4,14.6-15.3,22.8-21.8-1.4,12.2-1.4,25.2-7.3,36.4-4.7,8.6-13.8,13.2-20.2,20.1,2.2,4.6,6.3,8,9.5,11.8,5.3,5.5,10.2,11.3,16.2,16.1-1.7-12.3-6-24.6-3.3-37.1a36.69,36.69,0,0,1,9.2-16.7c2.5-2.5,8.1-4.4,9.9-.2,5.7,14.9,4.9,32.4-2.8,46.5-2,4.1-5.1,7.5-7.1,11.6,1.1,2,3.1,3.3,4.9,4.7,6.7,5,13.2,10.3,19.8,15.5-2.6-10.9-6.5-21.8-6.2-33.1.6-11.3,9.6-19.2,16.4-27.2,2.6,9.6,5.1,19.2,6.4,29.1,1.4,10.8-3.9,20.8-8.6,30.2-.9,1.9-3.1,4.9,0,6.1,14.3,6.8,29,12.6,43.8,18.2,3.2,1.5,7.5,1.7,9.8,4.7a35.91,35.91,0,0,1-2.1,9.6c-.5,1.7-2.4,1.2-3.6.6-15.2-7.6-30.7-14.5-45.9-22-2.6-1.3-6-3.1-8.7-.9-8.9,6.4-18.2,13.1-29.3,14.8-13.7,2.2-27.4-1.6-40.7-4.5,7.7-6.3,14.3-14.9,24.1-18,12.6-3.5,25.7-.3,38.5-.6-8.9-6.4-17.7-12.9-26.2-19.6-7.2-6.8-15-13-21.9-20.2-1.9-1.6-3.7-4.6-6.6-3.7-11,3.3-22.2,9.1-34,6.2-14.7-3.6-27.3-12.7-39.1-21.8,10-4.6,20.5-10.4,31.9-9.2,12.7,1.1,23.4,8.5,34.7,13.5-5.9-9.2-12.7-18-18.8-27.1-1.2-1.5-2.5-4.2-4.8-3.1-9.4,3.1-19.1,6.6-29.1,5.6-11.8-1-22.8-6.6-32.6-13-4.4-3.1-9.2-5.7-13.1-9.5a170.7,170.7,0,0,1,18-8.1c11.6-3.7,24-.2,34.4,5.2,8,3.9,15,9.5,22.6,14-4.6-8.5-9.1-17.2-14.2-25.4-7.3-1.3-14.7-1.3-22.1-2.2-8.9-.9-17.2-5-24.3-10.4C18,292.5,9.2,284.1.2,276c10.2-.5,20.5-1.7,30.7-.7,8.3.8,15.6,5.3,21.8,10.5,7,5.9,13.6,12.3,20.2,18.6-2-7.5-3.9-15.1-6.1-22.5-11.9-5.8-25.1-9.8-34.4-19.7C20.8,250.5,16.6,234.1,11.5,219c10.3,2.2,20.9,4.5,29.9,10.3a40,40,0,0,1,14.9,18.1c3.3,7.9,6.5,15.8,9.4,23.7.4-9.1,0-18.3.2-27.4-.2-2.2.6-5-1.4-6.6-6.8-6.3-14.7-11.3-20.4-18.6-7.3-9-11-20.4-12.1-31.8-.6-7-.9-14.1-1.3-21.1q4.05,2.1,7.8,4.5c6.3,4.1,13.3,7.8,17.8,14.1,8.1,10.9,9.1,25,12.5,37.8,2.2-8.7,4.3-17.5,5.7-26.3-6.6-9.6-14.9-18.3-18.8-29.5-5.1-14.5-3-30.2-1.8-45.1,6.7,5.2,13.8,10.1,19.2,16.6,4.5,5.3,6,12.3,6.9,19,.8,6.4,1.5,12.9,2.6,19.3,2.4-5.2,4-10.8,6.7-15.9,1.5-2.9,2.9-6.1,2.5-9.4-.4-4.3-3.6-7.5-6-10.8-7.1-9.2-11.8-20.5-11.9-32.2-.4-11.6,3.8-22.8,9.8-32.5A60.89,60.89,0,0,1,98.2,94.4c5.1,11,6.4,23.3,6.1,35.3a6,6,0,0,0,1.5,4.6c2.8-7.7,7.4-14.6,10.8-22,1.4-2.8.1-5.8-.5-8.6-3.4-12.7-6.7-26-3.6-39.1,2.4-11.4,10.4-20.4,17.7-29,3.7,17,4.5,34.4,4.2,51.8,4.3-3.6,9-6.8,13-10.8.3-3.1-.8-6.2-1.1-9.2-1.7-13-3-26.5,1-39.2Z" transform="translate(-0.2 0)"/><path class="cls-1" d="M909.8,2.3c6.7,7.4,13.2,15.4,16.5,25,6.2,16.4,2.9,34.1.7,50.9,3.8,4.2,8.8,7.3,13.1,11-.3-17.3.5-34.7,4.2-51.6,8.2,9,16.5,19.1,18.3,31.5,2.4,13.6-1.9,27.1-5,40.2-.7,2.1,0,4.3,1,6.2,3.9,7.5,8,15,11.4,22.7-5.4-5.1-9.5-11.3-14.6-16.7-1.9-2.1-4.9-1.3-7.3-1.1-12.9,1.4-27,3-38.9-3.6a181.44,181.44,0,0,1-19.8-12.9c11.2-4.4,23.5-6.2,35.3-3.7,8.8,1.6,16.9,5.7,24.5,10.2-2.2-4.3-4.2-8.8-6.7-13.1-3.4-5.5-9.7-8.4-15.7-10-10.1.1-20,3.2-30.1,1.7-14-1.7-26.2-9.5-36.6-18.6,12.9-4.4,26.8-5.8,40.2-3a90.84,90.84,0,0,1,19.8,6.8,90.19,90.19,0,0,1-12.7-49.1,148.44,148.44,0,0,1,2.5-23Z" transform="translate(-0.2 0)"/><path class="cls-1" d="M636.4,4.1h23.1v68c10.6-8.4,22.7-15.9,36.4-17.5,14-2,29.3.8,40,10.5,11.9,10.4,17.6,25.9,19.7,41.2,2.5,19.3,1.7,39.9-7,57.7-7.9,16.9-23.9,30.7-42.7,33.4-12,1.4-24.6.4-35.8-4.4-3.6-1.5-7.1-3.2-10.6-4.8-.5,2-.9,4.1-1.4,6.1H636.4Zm23.1,87.4v77.8c9.6,4.3,19.7,7.8,30.3,7.8,10.9.6,22.6-2.4,30.4-10.4,8.6-8.4,11.5-20.7,12.4-32.3.6-14.9.5-30.6-6.8-44.1-4.1-7.8-12.3-12.9-20.9-13.9C688.4,74.1,672.4,81.8,659.5,91.5Z" transform="translate(-0.2 0)"/><path class="cls-1" d="M266.2,12.3h25.3c10.5,42.6,21.4,85,31.9,127.6,2.1,7.6,3.7,15.3,5.9,22.8q18.9-75.15,37.5-150.4h24.7l37.8,152.1C442.1,113.8,454.5,63,467.1,12.3c8-.1,16,0,24,0q-23.55,91.05-47.3,182H416.5c-12.9-50-25.3-100.1-38.2-150.2C365.5,94,353.5,144.2,340.9,194.2c-8.9-.2-17.9.5-26.7-.3C298,133.4,282.1,72.8,266.1,12.2Z" transform="translate(-0.2 0)"/><path class="cls-1" d="M205.1,16.6c10.7-4.4,22.7-2.9,34-2.8C226,39.7,196.5,56.5,167.5,53.5c5.2-6.9,10.8-13.5,16.4-20.1,6.2-6.6,12.7-13.3,21.2-16.8Z" transform="translate(-0.2 0)"/><path class="cls-1" d="M835.3,16c9.3-.2,18.8-.9,28.1.9,10.9,2.3,19.3,10.3,26.6,18.2,5.9,6.7,11.7,13.5,17,20.7-29.1,2.9-58.4-13.9-71.7-39.8Z" transform="translate(-0.2 0)"/><path class="cls-1" d="M543.7,55.2c14.8-2.3,30.8-1.2,44.2,6C600.4,68,608.8,80.7,612,94.3c3,11.2,2.2,22.8,2.3,34.2H513.9c0,13.4,3.9,27.5,14,36.8,11.3,10.6,27.9,13.1,42.8,11.4a90.73,90.73,0,0,0,40.8-16.5c.2,8.6,0,17.2.1,25.8-17.9,7.4-37.2,12.9-56.8,11.1-17.9-1-36.3-7.5-48.3-21.3-10.8-12.1-15.3-28.6-15.8-44.5-.7-18,2.6-37,13.4-51.7a60.18,60.18,0,0,1,39.7-24.3ZM532,79.5c-10.5,6.8-17.1,18.9-18.1,31.3h77.9c.3-9.6-2.1-19.8-8.5-27.2-5.3-6.2-13.5-9.3-21.5-10.1-10.2-1-21.1.2-29.9,5.9Z" transform="translate(-0.2 0)"/><path class="cls-1" d="M975,99.6c3.3-8.7,9-16.2,15.9-22.5,5.9,9.6,10.1,20.7,9.8,32.2,0,11.7-4.6,23.1-11.7,32.3-2.4,3.3-5.6,6.4-6.2,10.7-.6,3.7,1.2,7.2,2.8,10.4,2.5,4.8,3.9,10.1,6.4,15,2.5-11.3,1.5-23.6,6.9-34.2,5.3-8.7,14-14.3,21.8-20.4,1.1,13.7,3,27.9-.6,41.4-3,11.6-10.9,21-18,30.3-.9,1.3-2.4,2.6-1.9,4.4q2.55,12.3,5.4,24.6c3.4-11.1,4.1-23.2,9.9-33.4a35.91,35.91,0,0,1,12.2-12.9c5.3-3.4,10.5-6.9,16.1-9.8-.4,7.3-.7,14.5-1.3,21.8-1.2,12.3-5.7,24.4-14.1,33.6-5.8,6.6-13.6,11.1-19.5,17.5q-.6,16.2,0,32.4c3.1-8.3,6.4-16.5,9.8-24.6a38.79,38.79,0,0,1,15.3-17.7c8.8-5.4,19-7.6,28.9-9.7-3.5,10.5-6.5,21.2-11.8,31a55.82,55.82,0,0,1-26.5,24.3c-5.6,2.9-11.8,4.7-16.9,8.2-2.4,7.2-4,14.7-6,22,9.4-8.6,18.2-18.3,29.3-24.9,8.6-5.2,19-4.7,28.7-4.3,4.6.3,9.2.4,13.8.9-.1.3-.4.9-.5,1.2-8.1,7.3-16.1,14.8-24.7,21.6-6.6,5.2-14.1,9.4-22.4,10.9-8.3,1.3-16.7,1.3-25,2.5-1.6,1.5-2.4,3.6-3.5,5.5-3.5,6.7-7.5,13.2-10.9,20,10.5-6.3,20.2-14.1,32-18,8.7-3.2,18.5-3.8,27.1-.4,5.3,2.2,10.5,4.7,15.7,7.2-2.9,3.3-6.9,5.3-10.4,7.8-10.2,7-21.6,13.2-34.1,14.7-10.4,1.3-20.5-2.3-30.3-5.5-2.5-1.1-3.8,1.9-5.1,3.5-6.1,9-12.7,17.7-18.6,26.8,11.4-5.1,22.1-12.5,34.8-13.6,11.4-1.2,21.8,4.7,31.8,9.1a144.9,144.9,0,0,1-23.7,16c-7.1,3.7-14.9,6.8-23,6.7-9.5-.3-18.1-4.7-27.1-7.1a12.5,12.5,0,0,0-1.9.3c-3.4,2.6-6.2,5.9-9.4,8.7-5,5-10.8,9.2-15.8,14.3-8.7,7.1-17.9,13.6-26.9,20.3,12.4.3,24.9-2.6,37.1.3,10.5,2.6,17.4,11.7,25.4,18.3-13.6,2.9-27.5,6.8-41.5,4.3-10.8-1.9-19.9-8.5-28.6-14.7-2.5-2-5.6-.4-8.1.8-13.5,6.6-27.1,12.9-40.6,19.4-2.8,1.2-5.3,3.4-8.5,3.3-1.8-3.2-2.4-7-2.8-10.7,1.1-2,3.6-2.4,5.5-3.2,11-3.7,21.7-8.4,32.5-12.7,5.9-2.6,12-4.9,17.6-8.3-4.5-10.3-11.3-20.4-11-32.1.9-10.9,3.8-21.5,6.6-32,6.7,8,15.6,15.8,16.4,26.9.5,11.5-3.6,22.4-6.1,33.5,6.3-4.8,12.5-9.9,18.9-14.7a31.58,31.58,0,0,0,5.5-4.8c.1-2.9-2.6-4.9-3.9-7.4-10.1-14.8-12-34.4-5.8-51,1.6-4.4,7.4-2.8,10-.1a36.19,36.19,0,0,1,9.6,18.2c2,12.1-1.9,23.9-3.6,35.7,8.4-7.1,15.7-15.6,23-23.8,1.1-1.6,3.9-3.9,1.5-5.6-7.2-6.3-16-11.8-20.2-20.8-4.8-10.7-4.9-22.7-6.2-34.2,8.1,6.5,17.5,12.4,22.7,21.8,5.7,10.3,4.5,22.4,6.1,33.7,9-10.2,16.6-21.6,23.6-33.3,3.8-7.2,8.2-14.2,11-21.9-7.2-3.4-15-5.3-21.8-9.5a52.8,52.8,0,0,1-20.5-22.4c-3.2-6.6-6.5-13.3-9.1-20.2,11.2,3.9,23.9,5.8,32.7,14.6,9.3,9.4,14.7,21.7,21.8,32.6,1.6-7.1,3.1-14.2,4.8-21.3.3-1.9,1.6-5.1-1.2-5.7-9.9-4.2-20.4-7.2-28.9-14-11.9-9-18.2-22.9-24.8-35.8,7.7,1.7,15.7,2.3,23,5.5a49.64,49.64,0,0,1,22.8,19.2c4.3,6.4,7.4,13.6,12.5,19.5,1.5-24.9.8-50.3-5.3-74.6-.6-1.7-.9-4.4-3.2-4.6-12.1-1.1-24.7-1.1-36-6.1-7.8-3.3-14.1-9.4-19.5-15.7-3.4-4-7.1-7.7-9.7-12.2a124.41,124.41,0,0,0,13.7-1,44.89,44.89,0,0,1,30,7.5c7.4,5.2,14.1,11.3,21.4,16.6-3.8-8.5-7.3-17.1-12-25.1-4.6-.8-9.2-.1-13.8-.4-12.3,0-25-2.2-35.2-9.4-8-5.9-14.3-13.8-21.1-20.9,14.5-1.4,30.4-4.3,43.8,3.1,6.9,4.1,13.2,9.2,19.4,14.4-1.7-16.5-2.7-33.9,3.5-49.7Z" transform="translate(-0.2 0)"/><path class="cls-1" d="M769.4,165.1h20.4V355.3H769.4v-14c-8.1,7.5-17.4,14.4-28.4,16.8-11.8,2.5-25.1.8-34.7-7-12.5-9.9-18.4-25.8-20.8-41.1-3.3-22.5-2.3-46.7,8.8-67,6.7-12.7,18.4-23.2,32.6-26.5,14.5-3.5,29.9.3,42.5,7.9V165.1Zm-54.2,83.6c-8.2,11-10.3,25.2-10.4,38.6,0,12.8,1,26.3,7.5,37.6,4.3,7.6,12.8,12.1,21.5,12.2,13.5.7,25.6-7,35.6-15.3v-78c-9.4-4.9-20-7.9-30.7-7.2a30.59,30.59,0,0,0-23.5,12.1Z" transform="translate(-0.2 0)"/><path class="cls-1" d="M244,173.3h28.6q29.1,91.05,58.3,182H308.1c-5.2-16.9-10.4-33.7-15.7-50.6H223.1c-5.3,16.8-10.5,33.7-15.7,50.5-7.3.1-14.5,0-21.8,0,19.4-60.7,39-121.3,58.3-182ZM229.7,283.6h56.1c-9.3-29.6-18.6-59.3-28-88.8-9.5,29.6-18.7,59.2-28.1,88.8Z" transform="translate(-0.2 0)"/><path class="cls-1" d="M106.5,199.9c10-4.5,21.2-4.3,31.9-5.3-8.8,13.3-16.9,27.9-31,36.4a35.33,35.33,0,0,1-25.7,5.2c-1-.2-3.4-.4-2.6-2.1,4.1-14.4,14-27.4,27.4-34.3Z" transform="translate(-0.2 0)"/><path class="cls-1" d="M936,196.9c10.7,1,21.9.8,31.9,5.3,13.9,7.1,23.7,20.6,27.8,35.5a34.64,34.64,0,0,1-29-4.5c-13.9-8.5-22-23.1-30.8-36.3Z" transform="translate(-0.2 0)"/><path class="cls-1" d="M499.2,221.6c19.3-5.4,39.9-8.5,59.7-4.2,9.8,2.1,19.3,7.6,24.7,16.2,5.9,9,7.2,20.2,7,30.7v90.9H570.2V340.9c-5.3,4-10,8.6-16,11.6a54.06,54.06,0,0,1-34.4,5.8c-11.2-2.2-20.7-10.1-25.9-20.1-5.5-10.3-6.2-22.5-4.3-33.9a38,38,0,0,1,16.3-26c11.8-7.9,26.2-10.2,40-11.6,8.1-.9,16.2-1.5,24.3-2,.2-7.4-.4-15.5-5.6-21.3-5.4-6.2-14-7.4-21.7-7.9-15.2-1.2-29.8,4.2-43.7,9.6-.1-7.9,0-15.8,0-23.7Zm32.5,66.6c-9.1,2.3-18.7,8.2-21.1,17.9-1.9,8.1-1.4,17.7,4.1,24.5,5.7,6.5,15,7.6,23.2,7.1,12.5-.7,23.2-8.1,32.4-16v-38c-12.9,1.2-25.9,1.6-38.5,4.6Z" transform="translate(-0.2 0)"/><path class="cls-1" d="M839.6,217c18.6-4.1,38.4-.2,55.2,8.4,0,8.4.1,16.9,0,25.3-9.8-7.2-20.7-13.2-32.8-15.2-9.5-1.7-20.1-.9-28.2,4.7-7.6,5.2-8.6,16.5-4.1,24,4.2,5.9,11.5,7.9,18.1,9.7,11.7,3.2,24.2,4.1,34.9,10.2a31.27,31.27,0,0,1,15.6,20.7c2.5,11.8,1.2,25.1-6.3,34.9-7.9,11-21.2,16.9-34.4,18.1-18,2.2-36.1-2.5-51.9-10.8-.2-8.9-.1-17.7,0-26.6,4.1,2.6,7.7,5.8,11.8,8.2,11.4,6.9,24.8,11.4,38.2,10.1,6.5-.6,13.6-2.3,18.3-7.1,4.9-5.1,5.4-12.9,3.8-19.4-1.3-5.1-6-8.4-10.7-10.2-12.5-4.7-26.1-5.4-38.5-10.6-7.8-3.1-15.1-8.5-18.7-16.4a43,43,0,0,1,.3-36.1c5.5-11.5,17.1-19.1,29.3-21.9Z" transform="translate(-0.2 0)"/><path class="cls-1" d="M323.8,218.9h21c7.5,34.9,14.6,70,22.4,104.9q14.85-52.5,29.8-104.9h16.9c10.2,35,20.3,70,30.6,104.9,7.1-35,13.9-70,20.9-104.9h20.5Q470.15,287,454.6,355.2c-6.3.2-12.6,0-18.9.1-10.4-34.8-20.4-69.6-30.8-104.4-10.6,34.7-20.3,69.6-30.7,104.4-6.2-.1-12.5,0-18.8-.1-10.4-45.5-21.1-90.9-31.6-136.3Z" transform="translate(-0.2 0)"/><path class="cls-1" d="M613.6,218.9H634v19.8c8.4-7.3,17.2-14.7,28.1-18,8.7-2.7,17.9-1.9,26.7-.3,0,7.9.1,15.9-.1,23.9-10.5-2.3-21.9-4.1-32.2-.3-8.4,3.2-15.8,8.6-22.4,14.6v96.8H613.7V219Z" transform="translate(-0.2 0)"/><path class="cls-1" d="M112.4,308.7c7-9.5,17.6-15.5,28.5-19.4-4.1,12.4-7.2,25.5-14.5,36.5a32.33,32.33,0,0,1-20,14A37.43,37.43,0,0,1,112.4,308.7Z" transform="translate(-0.2 0)"/><path class="cls-1" d="M933.6,291.6c11.4,4,22.4,10.5,29.3,20.6,5.6,8.1,7.3,18.4,5.6,28-.3,2.8-3.5,1-5.1.5-10.8-4-17.5-14.3-21.6-24.5C938.8,308.1,936,299.9,933.6,291.6Z" transform="translate(-0.2 0)"/><path class="cls-1" d="M609.4,384.1c11.2-4.6,24.1-2.6,34.7,2.8-.1,4.2-.1,8.5-.1,12.8-6.6-5-14.6-9.2-23.2-8.4-8,0-14.9,6.4-16.8,14-2,8.1-2,17,1.2,24.7a17.93,17.93,0,0,0,16.6,10.7c8.2.5,15.6-3.8,22.1-8.3,0,4.1,0,8.3.1,12.4-9.8,5.3-21.6,7.3-32.4,4a26.82,26.82,0,0,1-16.9-14.5c-3.9-8.4-4.1-18-2.8-27.1,1.5-10,8-19.2,17.5-23.1Z" transform="translate(-0.2 0)"/><path class="cls-1" d="M671.4,382.1c7.8-1.2,16.3-.8,23.1,3.5,8.1,4.9,12.8,14.2,13.7,23.5s.5,19-4.2,27.3A27,27,0,0,1,685,450c-8.2,1.3-17.4.4-24.2-4.7-7.4-5.3-11.3-14.2-12.1-23-.8-9.3-.2-19.2,4.8-27.4a27.55,27.55,0,0,1,18-12.8Zm1.8,9.6c-7.6,1.7-12.2,9.3-13,16.6-.9,8.4-1.1,17.6,3.5,25,6,9.9,22.4,10.3,28.9.8,4.3-6,4.7-13.7,4.5-20.9-.3-6.6-1.9-13.8-7.1-18.2-4.5-4-11.1-4.4-16.8-3.3Z" transform="translate(-0.2 0)"/><path class="cls-1" d="M730.8,390.3c4.9-3.6,10-7.3,16.1-8.4,5.6-.8,11.7-.6,16.7,2.4,3,1.7,5,4.6,6.8,7.4,5.6-4.6,11.9-9,19.3-10,5.9-.6,12.4-.5,17.4,3.2,5.7,4.2,7.9,11.5,8.1,18.3v45.6H804.1V407.1c-.3-4.3-.4-9.4-3.8-12.5-2.8-2.7-6.9-2.6-10.5-2.5-6.4.3-11.9,4.3-16.9,7.9.3,16.3.1,32.5,0,48.8H761.8c-.1-13.9,0-27.8,0-41.7-.1-4.3-.3-9.2-3.6-12.4s-8.3-2.8-12.6-2.4c-5.6,1-10.4,4.4-14.9,7.6v48.9H719.6c-.1-21.9,0-43.8,0-65.7h11.2v7.2Z" transform="translate(-0.2 0)"/><path class="cls-1" d="M96.7,400.9c9.9-3.1,20.4-1.1,30.2,1.6,7.2,2,14,5.1,21,7.8-10.6,6.5-22.1,13.5-35,13.1-12.9-.2-25.6-3.4-38-6.6,6.2-6.6,13-13.1,21.9-15.9Z" transform="translate(-0.2 0)"/><path class="cls-1" d="M926.8,412.4c14-5.7,28.6-11.8,44-10.7,11.8.9,21.3,8.9,28.8,17.4-13,3.1-26.2,6.8-39.8,6.5-7.2,0-14.2-2.5-20.5-5.9-4.2-2.3-8.8-4.2-12.6-7.3Z" transform="translate(-0.2 0)"/><path class="cls-1" d="M561.6,432.1h14.2V449H561.7c-.1-5.6,0-11.3,0-16.9Z" transform="translate(-0.2 0)"/></svg>